<svg xmlns="http://www.w3.org/2000/svg" height="1200" width="1600" version="1.1" xmlns:xlink="http://www.w3.org/1999/xlink" xmlns:svgjs="http://svgjs.com/svgjs"><rect fill="#ffffff" width="1600" height="1200"></rect><g><path d="M492.66 271.01H410.84C410.84 271.01 401.39 319.37 429.86 345.02H511.67C483.2 319.37 492.66 271.01 492.66 271.01Z" fill="#9ee7ff" opacity="1" stroke-width="4" stroke="#000000"></path><path d="M377.98 229.17H296.17C296.17 229.17 286.71 277.54 315.18 303.19H397C368.43 277.54 377.98 229.17 377.98 229.17Z" fill="#008bc7" opacity="1" stroke-width="4" stroke="#000000"></path></g><g><path d="M972.53 1014.55H948.34V750.48C948.34 721.38 921.92 697.67 889.51 697.67H479.8C447.38 697.67 420.97 721.38 420.97 750.48V1014.55H396.77V750.48C396.77 710.58 434.03 678.11 479.8 678.11H889.51C935.28 678.11 972.53 710.58 972.53 750.48V1014.55Z" fill="#3c2c5b" opacity="1" stroke-width="4" stroke="#000000"></path></g><g><path d="M787.72 678.11H682.46L675.71 639.9 668.95 601.44H774.21L776.68 615.34 787.72 678.11Z" fill="#ffffff" opacity="1" stroke-width="4" stroke="#000000"></path><path d="M675.71 639.9L668.95 601.44H774.21L776.68 615.34 675.71 639.9Z" fill="#ffffff00" opacity="0" stroke-width="4" stroke="#ffffff00"></path><path d="M859.58 608.71H586.17C567.98 608.71 550.7 594.03 547.45 575.84L514.31 388.19C511.06 370 523.28 355.32 541.34 355.32L814.88 355.32C833.07 355.32 850.36 370 853.6 388.19L886.61 575.97C889.86 594.03 877.77 608.71 859.58 608.71Z" fill="#ffffff" opacity="1" stroke-width="4" stroke="#000000"></path><path d="M845.42 588.96H593.32C581.62 588.96 570.58 579.48 568.5 567.91L538.22 396.38C536.14 384.69 543.94 375.33 555.64 375.33L807.73 375.33C819.43 375.33 830.47 384.82 832.55 396.38L862.83 567.91C864.78 579.48 856.98 588.96 845.42 588.96Z" fill="#ffffff" opacity="1" stroke-width="4" stroke="#000000"></path><path d="M775.51 608.71H670.25" stroke="#000000" stroke-width="4" stroke-linecap="round" stroke-linejoin="round" opacity="1" fill="none"></path></g><g><path d="M1214.56 472.38C1245.62 472.38 1270.81 447.2 1270.81 416.13 1270.81 385.07 1245.62 359.89 1214.56 359.89 1183.49 359.89 1158.31 385.07 1158.31 416.13 1158.31 447.2 1183.49 472.38 1214.56 472.38Z" fill="#9ee7ff" opacity="1" stroke-width="4" stroke="#000000"></path><path d="M1223.06 389.55V418.9C1223.06 423.61 1219.27 427.4 1214.56 427.4 1209.85 427.4 1206.06 423.61 1206.06 418.9V389.55C1206.06 384.84 1209.85 381.05 1214.56 381.05 1219.27 381 1223.06 384.84 1223.06 389.55Z" fill="#ffffff" opacity="1" stroke-width="4" stroke="#000000"></path><path d="M1214.56 451.22C1219.25 451.22 1223.06 447.41 1223.06 442.72 1223.06 438.02 1219.25 434.22 1214.56 434.22 1209.86 434.22 1206.06 438.02 1206.06 442.72 1206.06 447.41 1209.86 451.22 1214.56 451.22Z" fill="#ffffff" opacity="1" stroke-width="4" stroke="#000000"></path></g><g><path d="M697.88 417.15C731.31 417.15 762.98 444.18 768.72 477.61 774.46 511.04 750.23 538.07 716.88 538.07 683.52 538.07 653.53 511.04 647.79 477.61 642.05 444.18 664.45 417.15 697.88 417.15Z" fill="#61ccff" opacity="1" stroke-width="4" stroke="#000000"></path><path d="M651.37 445.78H754.22" stroke="#000000" stroke-width="4" stroke-linecap="round" stroke-linejoin="round" opacity="1" fill="none"></path><path d="M647.79 477.61H768.72" stroke="#000000" stroke-width="4" stroke-linecap="round" stroke-linejoin="round" opacity="1" fill="none"></path><path d="M662.4 509.6L765.13 509.36" stroke="#000000" stroke-width="4" stroke-linecap="round" stroke-linejoin="round" opacity="1" fill="none"></path><path d="M716.88 538.07L697.88 417.15" stroke="#000000" stroke-width="4" stroke-linecap="round" stroke-linejoin="round" opacity="1" fill="none"></path><path d="M697.88 417.15C697.88 417.15 629.04 470.89 716.88 538.07" stroke="#000000" stroke-width="4" stroke-linecap="round" stroke-linejoin="round" opacity="1" fill="none"></path><path d="M697.96 417.15C697.96 417.15 782.17 469.29 716.88 538.07" stroke="#000000" stroke-width="4" stroke-linecap="round" stroke-linejoin="round" opacity="1" fill="none"></path></g><g><path d="M1051.68 375.89C1027.37 374.93 1024.98 364.88 1015.69 378.85 1014.55 380.58 1000.67 378.47 999.71 380.77 996.74 388.81 995.21 400.87 993.58 411.68 993.58 411.68 984.97 413.41 984.3 417.04 983.63 421.25 991.19 427.19 991.19 427.19 988.03 437.05 986.5 448.34 993.68 458.39 1004.02 472.94 1030.34 469.11 1030.34 469.11L1030.63 475.81 1054.84 487.97 1095.62 475.81 1095.81 470.45C1093.41 449.59 1086.62 411.59 1086.62 400.58 1086.62 370.43 1079.63 376.94 1051.68 375.89Z" fill="#eaa58b" opacity="1" stroke-width="4" stroke="#000000"></path><path d="M1030.43 469.11L1030.72 475.81 1041.44 484.52 1052.16 469.21C1054.08 466.43 1051.3 462.99 1048.14 464.13L1030.43 469.11Z" fill="#eaa58b00" opacity="0" stroke-width="4" stroke="#ffffff00"></path><path d="M1002.58 375.12C1011.96 361.05 1027.66 353.78 1052.26 354.73 1080.4 355.79 1097.34 372.34 1097.43 402.69 1097.43 413.41 1096.48 449.59 1095.81 470.45 1095.81 470.45 1073.79 470.16 1064.13 457.63 1064.13 457.63 1084.42 438.29 1074.75 423.84 1065.08 409.39 1042.88 426.71 1042.88 426.71 1028.23 419.82 1033.5 405.27 1034.84 402.21 1034.93 402.02 1034.74 401.73 1034.45 401.82 1030.24 403.16 1005.17 409.96 1011.77 386.7 1011.87 386.41 1011.67 386.22 1011.39 386.22 1002.1 386.03 999.71 380.77 999.71 380.77 1000.48 378.76 1001.53 376.94 1002.58 375.12Z" fill="#c65a42" opacity="1" stroke-width="4" stroke="#000000"></path><path d="M999.81 435.04C1006.6 436.19 1010.43 430.44 1010.43 430.44" stroke="#000000" stroke-width="4" stroke-linecap="round" stroke-linejoin="round" opacity="1" fill="none"></path><path d="M1030.43 469.11L1045.94 464.8" stroke="#000000" stroke-width="4" stroke-linecap="round" stroke-linejoin="round" opacity="1" fill="none"></path><path d="M1049.86 439.92L1058.19 436.19" stroke="#000000" stroke-width="4" stroke-linecap="round" stroke-linejoin="round" opacity="1" fill="none"></path><path d="M1005.17 415.13C1003.53 415.13 1002.2 413.8 1002.2 412.16 1002.2 410.52 1003.53 409.19 1005.17 409.19 1006.8 409.19 1008.13 410.52 1008.13 412.16 1008.13 413.8 1006.8 415.13 1005.17 415.13Z" fill="#231f20" opacity="1" stroke-width="4" stroke="#000000"></path><path d="M1030.72 946.91L1033.4 940.69C1032.16 929.4 1030.53 918.77 1028.52 908.24L1023.54 893.79 926.78 895.32 928.88 907.96C931.18 915.14 932.71 922.51 933.76 929.97L959.61 980.6 1030.72 946.91Z" fill="#eaa58b" opacity="1" stroke-width="4" stroke="#000000"></path><path d="M1088.34 710.21C1081.45 680.45 1070.44 661.69 1070.44 661.69L1067.19 665.61C1067.19 665.61 939.51 679.87 900.36 726.39 868.39 764.29 913.19 856.56 928.98 908.24H1028.52C1019.91 863.45 1005.64 823.35 988.61 789.56H1011.48C1073.51 789.66 1097.72 751.27 1088.34 710.21Z" fill="#008bc7" opacity="1" stroke-width="4" stroke="#000000"></path><path d="M900.26 726.39C939.41 679.87 1067.09 665.61 1067.09 665.61L1070.35 661.69C1070.35 661.69 1081.35 680.45 1088.25 710.21 1097.63 751.27 1070.73 776.73 1008.61 776.54L988.61 789.56C992.05 796.45 995.31 803.34 998.56 810.81 1003.44 821.82 946.21 831.48 943.34 908.24H928.98C913.19 856.56 868.39 764.29 900.26 726.39Z" fill="#008bc700" opacity="0" stroke-width="4" stroke="#ffffff00"></path><path d="M928.98 908.24H1028.52" stroke="#000000" stroke-width="4" stroke-linecap="round" stroke-linejoin="round" opacity="1" fill="none"></path><path d="M900.84 995.34C911.18 978.12 934.05 973.52 934.24 938.78 934.24 936.86 933.86 930.93 933.76 929.97H956.83C964.11 929.88 969.94 935.71 970.04 942.99 970.04 943.75 969.94 944.52 969.85 945.38L966.21 967.97C966.21 967.97 991.57 942.61 1033.4 940.69 1034.36 948.25 1034.84 956.2 1035.32 964.05 1035.51 966.82 1035.6 969.98 1035.79 972.85 1036.08 980.03 1036.75 987.78 1036.75 995.34L1035.99 996.78 901.13 995.73C901.13 995.63 900.84 995.34 900.84 995.34Z" fill="#61ccff" opacity="1" stroke-width="4" stroke="#000000"></path><path d="M900.84 995.34H1036.75C1036.94 1001.57 1036.75 1008.17 1036.56 1014.77H895.86C895.77 1010.18 896.53 1005.68 897.87 1001.28 898.73 999.17 899.69 997.16 900.84 995.34Z" fill="#ffffff" opacity="1" stroke-width="4" stroke="#000000"></path><path d="M931.37 957.35L946.78 963.85" stroke="#000000" stroke-width="4" stroke-linecap="round" stroke-linejoin="round" opacity="1" fill="none"></path><path d="M924.67 969.69L937.02 979.17" stroke="#000000" stroke-width="4" stroke-linecap="round" stroke-linejoin="round" opacity="1" fill="none"></path><path d="M966.31 967.68L961.14 995.34" stroke="#000000" stroke-width="4" stroke-linecap="round" stroke-linejoin="round" opacity="1" fill="none"></path><path d="M904.67 906.52L826.85 860.58 814.79 871.68C812.59 883.07 811.44 891.59 809.62 895.32L814.89 953.04H884.76L894.43 948.54C898.54 937.44 901.22 928.44 904.19 917.62L904.67 906.52Z" fill="#eaa58b" opacity="1" stroke-width="4" stroke="#000000"></path><path d="M1118.3 692.22L1112.65 658.05 997.22 661.4C997.22 661.4 888.97 676.43 857.96 710.31 831.64 743.23 832.69 777.12 822.45 831 819.77 845.46 817.09 860 814.79 871.68L904.19 917.62C919.89 858.76 921.51 827.37 921.42 789.37L1038.86 789.66C1090.73 790.13 1129.21 742.47 1118.3 692.22Z" fill="#008bc7" opacity="1" stroke-width="4" stroke="#000000"></path><path d="M814.79 871.68L904.19 917.62" stroke="#000000" stroke-width="4" stroke-linecap="round" stroke-linejoin="round" opacity="1" fill="none"></path><path d="M751.24 937.05C768.18 926.24 791.06 932.08 806.85 901.07 807.8 899.34 808.57 897.43 809.53 895.42 809.53 895.32 809.62 895.23 809.72 895.23L825.99 903.08C833.55 906.71 836.81 915.81 833.17 923.37 832.79 924.13 832.4 924.8 831.92 925.47L820.15 942.41C820.15 942.41 855.09 930.55 894.43 948.54 891.94 955.24 889.26 962.04 886.48 968.93 885.43 971.61 884.09 974.38 883.04 977.25 880.26 983.95 873.46 997.93 873.46 997.93L870.78 999.27 751.24 938.68C751.05 938.3 751.14 937.15 751.24 937.05Z" fill="#61ccff" opacity="1" stroke-width="4" stroke="#000000"></path><path d="M747.03 940.31C748.37 939.16 749.8 938.01 751.24 937.05L873.46 997.93C870.78 1003.58 867.63 1008.94 864.47 1014.77L738.51 951.99C740.61 947.49 743.49 943.56 747.03 940.31Z" fill="#ffffff" opacity="1" stroke-width="4" stroke="#000000"></path><path d="M794.69 917.53L805.03 929.97" stroke="#000000" stroke-width="4" stroke-linecap="round" stroke-linejoin="round" opacity="1" fill="none"></path><path d="M782.63 925.28L788.85 938.3" stroke="#000000" stroke-width="4" stroke-linecap="round" stroke-linejoin="round" opacity="1" fill="none"></path><path d="M820.06 942.32L803.31 962.99" stroke="#000000" stroke-width="4" stroke-linecap="round" stroke-linejoin="round" opacity="1" fill="none"></path><path d="M915.48 869.38C921.13 838.37 921.61 815.69 921.42 789.37" stroke="#000000" stroke-width="4" stroke-linecap="round" stroke-linejoin="round" opacity="1" fill="none"></path><path d="M988.61 789.56L921.42 789.37" stroke="#000000" stroke-width="4" stroke-linecap="round" stroke-linejoin="round" opacity="1" fill="none"></path><path d="M930.8 587.41C947.45 595.26 960.66 601.77 960.66 601.77 960.66 601.77 969.27 553.91 979.8 527.11 990.33 500.31 1005.64 485.96 1030.53 484.04L1030.72 475.81H1095.62V484.81C1125.96 488.73 1144.43 529.89 1156.87 573.92 1169.31 617.95 1171.61 683.99 1118.3 692.12L1111.6 661.4 1012.63 661.59C1012.63 661.59 997.03 683.03 964.49 679.2 945.15 676.9 917.4 660.92 895.38 646.37L892.89 643.5 921.51 587.03 930.8 587.41Z" fill="#61ccff" opacity="1" stroke-width="4" stroke="#000000"></path><path d="M1138.59 684.85C1132.37 688.68 1125.67 690.97 1118.3 692.12L1111.6 661.4 1117.53 616.51C1126.15 616.51 1122.42 634.31 1127.2 657.28 1131.32 677.1 1138.59 684.85 1138.59 684.85Z" fill="#61ccff00" opacity="0" stroke-width="4" stroke="#ffffff00"></path><path d="M1012.63 661.59C1021.82 645.22 1034.36 615.17 1041.06 577.84" stroke="#000000" stroke-width="4" stroke-linecap="round" stroke-linejoin="round" opacity="1" fill="none"></path><path d="M1120.12 597.27L1111.6 661.4" stroke="#000000" stroke-width="4" stroke-linecap="round" stroke-linejoin="round" opacity="1" fill="none"></path><path d="M960.66 601.77L970.42 622.44" stroke="#000000" stroke-width="4" stroke-linecap="round" stroke-linejoin="round" opacity="1" fill="none"></path><path d="M1134.86 636.23L1115.43 632.4" stroke="#000000" stroke-width="4" stroke-linecap="round" stroke-linejoin="round" opacity="1" fill="none"></path><path d="M840.44 574.4L849.92 583.87C850.3 584.25 850.88 584.64 851.45 584.73 854.03 585.31 861.69 586.93 868.77 586.46 871.36 586.26 872.7 583.3 871.17 581.29 866.76 575.35 859.97 564.92 863.99 561.57 867.53 558.6 903.71 574.68 930.8 587.41L895.38 646.37C880.36 636.42 868.1 627.33 863.03 623.78 855.66 618.42 849.92 610.96 846.95 602.25 846.86 601.87 846.66 601.58 846.47 601.29 844.46 598.8 834.22 585.4 834.99 576.31 835.18 573.63 838.53 572.48 840.44 574.4Z" fill="#eaa58b" opacity="1" stroke-width="4" stroke="#000000"></path><path d="M1012.63 661.59C1028.62 636.32 1038.95 588.37 1038.95 588.37H1040.01C1046.51 590 1049.58 594.21 1051.4 605.79 1053.41 621.49 1058.38 649.24 1070.63 661.49L1012.63 661.59Z" fill="#61ccff00" opacity="0" stroke-width="4" stroke="#ffffff00"></path><path d="M846.76 601.77C853.46 606.56 871.93 605.6 871.93 605.6" stroke="#000000" stroke-width="4" stroke-linecap="round" stroke-linejoin="round" opacity="1" fill="none"></path><path d="M856.24 617.85C864.95 620.91 876.43 620.91 876.43 620.91" stroke="#000000" stroke-width="4" stroke-linecap="round" stroke-linejoin="round" opacity="1" fill="none"></path><path d="M871.17 581.29L882.17 594.11" stroke="#000000" stroke-width="4" stroke-linecap="round" stroke-linejoin="round" opacity="1" fill="none"></path></g><g><path d="M1022.15 813.87C1028.41 813.87 1033.57 818.89 1033.57 825.1L1033.48 854.49V976.07C1033.48 982.28 1028.41 987.3 1022.15 987.3 1015.89 987.3 1010.82 982.28 1010.82 976.07V825.1C1010.73 818.89 1015.8 813.87 1022.15 813.87Z" fill="#ffffff" opacity="1" stroke-width="4" stroke="#000000"></path><path d="M1022.15 813.87C1015.8 813.87 1010.73 818.89 1010.82 825.1V864.71L1033.48 854.49 1033.57 825.1C1033.48 818.89 1028.41 813.87 1022.15 813.87Z" fill="#ffffff00" opacity="0" stroke-width="4" stroke="#ffffff00"></path><path d="M1101.62 1002.36C1100.05 1000.99 1022.79 934.09 1022.79 934.09H1021.41C1021.41 934.09 944.15 1000.99 942.59 1002.36 940.65 1003.46 938.54 1008.84 941.58 1012.31 943.97 1015.23 948.21 1015.96 951.43 1013.86 951.61 1013.77 993.88 985.02 1019.2 967.77 1020.95 966.58 1023.16 966.58 1024.91 967.77 1050.24 985.02 1092.6 1013.77 1092.69 1013.86 1096 1015.96 1100.33 1015.14 1102.54 1012.31 1105.67 1008.75 1103.55 1003.46 1101.62 1002.36Z" fill="#3c2c5b" opacity="1" stroke-width="4" stroke="#000000"></path><path d="M1003.73 929.7H1040.48C1042.69 929.7 1044.43 931.44 1044.43 933.63V953.16H999.68V933.63C999.77 931.44 1001.52 929.7 1003.73 929.7Z" fill="#3c2c5b" opacity="1" stroke-width="4" stroke="#000000"></path><path d="M999.77 806.75H1044.53V837.15C1044.53 838.7 1043.24 840.07 1041.58 840.07H1002.63C1001.06 840.07 999.77 838.79 999.77 837.15V806.75Z" fill="#3c2c5b" opacity="1" stroke-width="4" stroke="#000000"></path><path d="M955.94 788.68H1088.27C1097.11 788.68 1104.2 795.8 1104.2 804.47 1104.2 813.23 1097.02 820.26 1088.27 820.26H955.94C947.1 820.26 940.01 813.14 940.01 804.47 940.01 795.8 947.19 788.68 955.94 788.68Z" fill="#3c2c5b" opacity="1" stroke-width="4" stroke="#000000"></path></g><g><path d="M602.04 678.41L581.05 559.27H450.57L471.56 678.41H602.04Z" fill="#61ccff" opacity="1" stroke-width="4" stroke="#000000"></path><path d="M515.93 559.27L536.97 678.41" stroke="#000000" stroke-width="4" stroke-linecap="round" stroke-linejoin="round" opacity="1" fill="none"></path><path d="M544.35 652.31H584.74L578.22 615.43H537.83L544.35 652.31Z" fill="#ffffff" opacity="1" stroke-width="4" stroke="#000000"></path><path d="M474 626.21H514.4L507.87 589.34H467.48L474 626.21Z" fill="#ffffff" opacity="1" stroke-width="4" stroke="#000000"></path><path d="M587.01 664.79H546.73" stroke="#000000" stroke-width="4" stroke-linecap="round" stroke-linejoin="round" opacity="1" fill="none"></path><path d="M571.13 573.45H530.85" stroke="#000000" stroke-width="4" stroke-linecap="round" stroke-linejoin="round" opacity="1" fill="none"></path><path d="M504.75 573.45H464.47" stroke="#000000" stroke-width="4" stroke-linecap="round" stroke-linejoin="round" opacity="1" fill="none"></path><path d="M521.2 664.79H480.92" stroke="#000000" stroke-width="4" stroke-linecap="round" stroke-linejoin="round" opacity="1" fill="none"></path><path d="M549.28 589.34H533.12" stroke="#000000" stroke-width="4" stroke-linecap="round" stroke-linejoin="round" opacity="1" fill="none"></path><path d="M573.4 589.34H557.23" stroke="#000000" stroke-width="4" stroke-linecap="round" stroke-linejoin="round" opacity="1" fill="none"></path><path d="M550.99 599.55H534.82" stroke="#000000" stroke-width="4" stroke-linecap="round" stroke-linejoin="round" opacity="1" fill="none"></path><path d="M575.1 599.55H558.93" stroke="#000000" stroke-width="4" stroke-linecap="round" stroke-linejoin="round" opacity="1" fill="none"></path><path d="M493.12 641.53H476.95" stroke="#000000" stroke-width="4" stroke-linecap="round" stroke-linejoin="round" opacity="1" fill="none"></path><path d="M517.23 641.53H501.06" stroke="#000000" stroke-width="4" stroke-linecap="round" stroke-linejoin="round" opacity="1" fill="none"></path><path d="M494.82 651.74H478.66" stroke="#000000" stroke-width="4" stroke-linecap="round" stroke-linejoin="round" opacity="1" fill="none"></path><path d="M518.93 651.74H502.77" stroke="#000000" stroke-width="4" stroke-linecap="round" stroke-linejoin="round" opacity="1" fill="none"></path></g><g><path d="M378.52 786.82C395.69 786.82 409.69 800.82 409.69 817.99V837.14H347.35V817.99C347.35 800.82 361.24 786.82 378.52 786.82Z" stroke="#000000" stroke-width="4" stroke-linecap="round" stroke-linejoin="round" opacity="1" fill="none"></path><path d="M378.52 817.45C425.99 817.45 464.38 855.84 464.38 903.31V1014.33H292.66V903.31C292.66 855.95 331.05 817.45 378.52 817.45Z" fill="#ffffff" opacity="1" stroke-width="4" stroke="#000000"></path><path d="M464.38 938.86H292.66V1014.33H464.38V938.86Z" fill="#008bc7" opacity="1" stroke-width="4" stroke="#000000"></path><path d="M292.66 938.86H464.38V970.69L292.66 954.72V938.86Z" fill="#008bc700" opacity="0" stroke-width="4" stroke="#ffffff00"></path><path d="M333.57 978.02L423.37 978.02" stroke="#000000" stroke-width="4" stroke-linecap="round" stroke-linejoin="round" opacity="1" fill="none"></path><path d="M378.46 859.04L352.07 885.41 378.46 911.79 404.83 885.41 378.46 859.04Z" fill="#008bc7" opacity="1" stroke-width="4" stroke="#000000"></path></g><g><path d="M1341.73 1015.88L1341.75 1014.09C1341.75 983.28 1341.75 954.18 1303.82 917.48 1302.55 916.25 1301.33 915.09 1300.15 913.98 1299.2 913.07 1298.28 912.2 1297.39 911.35 1279.4 894.28 1271.96 887.21 1259.09 844.17L1258.86 843.33 1258.72 842.87C1247.31 804.92 1242.59 789.21 1218.09 784.55 1216.47 784.22 1214.86 784.17 1213.64 784.17 1204.44 784.17 1195.81 789.26 1191.49 792.3 1188.75 794.2 1185.49 795.2 1182.08 795.2 1180.45 795.2 1178.76 794.97 1177.18 794.51L1154.5 787.85C1153.8 787.64 1153.11 787.54 1152.28 787.54 1148.75 787.54 1145.59 789.94 1144.59 793.38 1144.45 793.89 1144.37 794.33 1144.29 794.92 1143.68 802.15 1144.43 812.46 1151.49 820.52 1156.06 825.7 1161.24 829.06 1165.81 832.03L1165.9 832.09C1171.7 835.88 1176.23 838.84 1176.23 843.49V997.01L1173.19 996.99C1165.91 996.99 1159.99 1002.91 1159.99 1010.19V1015.88H1341.73V1015.88Z" fill="#ffffff" opacity="1" stroke-width="4" stroke="#000000"></path><path d="M1267.16 868.33L1267.05 868.07C1264.98 862.71 1262.9 856.52 1260.31 848L1260.29 847.93 1176.18 847.91 1176.16 868.33H1267.16V868.33Z" fill="#008bc7" opacity="1" stroke-width="4" stroke="#000000"></path><path d="M1228.81 892.31C1239.55 892.31 1248.29 883.57 1248.29 872.83V811.24C1241.39 794.06 1232.56 787.1 1218.01 784.56 1216.76 784.34 1215.35 784.17 1213.56 784.17 1212.01 784.17 1210.87 784.21 1209.63 784.41L1209.27 784.48 1209.25 872.83C1209.33 883.57 1218.1 892.31 1228.81 892.31Z" fill="#cbcbcb" opacity="1" stroke-width="4" stroke="#000000"></path><path d="M1176.64 905.39C1181.54 905.39 1185.91 902.48 1187.82 897.88 1189.05 894.89 1189.05 891.6 1187.82 888.61 1186.6 885.62 1184.22 883.32 1181.23 882.02 1179.78 881.41 1178.17 881.1 1176.64 881.1 1171.73 881.1 1167.37 884.01 1165.45 888.61 1164.23 891.6 1164.23 894.89 1165.45 897.88 1166.68 900.87 1169.05 903.17 1172.04 904.47 1173.5 905.08 1175.03 905.39 1176.64 905.39Z" fill="#3c2c5b" opacity="1" stroke-width="4" stroke="#000000"></path><path d="M1192.88 808.79C1190.89 808.79 1189.28 807.17 1189.28 805.18 1189.28 803.2 1190.89 801.58 1192.88 801.58 1194.87 801.58 1196.48 803.2 1196.48 805.18 1196.48 807.17 1194.87 808.79 1192.88 808.79Z" fill="#5a3a35" opacity="1" stroke-width="4" stroke="#000000"></path><path d="M1149.65 800.33C1155.45 800.33 1160.17 795.58 1160.17 789.74V789.51L1154.48 787.8C1154.03 787.65 1153.49 787.57 1152.96 787.5L1152.33 787.49C1148.04 787.49 1144.57 790.67 1144.27 794.87 1144.19 796.07 1144.11 797.32 1144.11 798.7V798.82L1144.2 798.87C1145.75 799.8 1147.73 800.33 1149.65 800.33Z" fill="#cbcbcb" opacity="1" stroke-width="4" stroke="#000000"></path><path d="M1210.34 1015.88L1210.37 1010.19C1210.37 1003.1 1216.13 997.34 1223.21 997.34L1226.59 997.34 1226.61 997.16C1226.61 997.16 1226.6 997.11 1226.6 997.03 1226.26 991.77 1225.32 964.5 1239.7 944.55L1240.01 944.17 1239.53 944.28 1239.44 944.32C1235.98 945.78 1205.57 959.73 1205.5 997.16 1205.36 997.18 1201.69 998.02 1198.17 1001.02 1193.98 1004.58 1191.86 1009.52 1191.86 1015.7V1015.88H1210.34V1015.88Z" fill="#ffffff00" opacity="0" stroke-width="4" stroke="#ffffff00"></path><path d="M1269.72 924.54C1221.07 936.11 1226.43 997.16 1226.43 997.16H1223.21C1216.01 997.16 1210.19 1002.99 1210.19 1010.19V1014.94" stroke="#000000" stroke-width="4" stroke-linecap="round" stroke-linejoin="round" opacity="1" fill="none"></path></g></svg>