<svg width="1920" height="1080" viewBox="0 0 1920 1080" xmlns="http://www.w3.org/2000/svg"><rect width="1920" height="1080" fill="#0095c7"/><path d="M 0,1080 C 0,1080 0,216 0,216 C 55.87160507885896,233.7823758279717 111.74321015771793,251.56475165594338 160,224 C 208.25678984228207,196.43524834405662 248.89876444798722,123.52336920419819 319,137 C 389.1012355520128,150.4766307958018 488.66173205033317,250.3417715272638 546,257 C 603.3382679496668,263.6582284727362 618.4543073506803,177.10954468674674 676,161 C 733.5456926493197,144.89045531325326 833.5210385469454,199.22004972574916 904,216 C 974.4789614530546,232.77995027425084 1015.4615384615383,212.01025641025643 1063,210 C 1110.5384615384617,207.98974358974357 1164.632807606901,224.73892463322517 1213,248 C 1261.367192393099,271.26107536677483 1304.007231110858,301.03404505684296 1373,271 C 1441.992768889142,240.96595494315704 1537.3382679496672,151.12489513940292 1590,154 C 1642.6617320503328,156.87510486059708 1652.6396970904739,252.4663743855454 1713,277 C 1773.3603029095261,301.5336256144546 1884.102943688436,255.00960731841562 1927,233 C 1969.897056311564,210.99039268158438 1944.948528155782,213.49519634079218 1920,216 C 1920,216 1920,1080 1920,1080 Z" fill="#42d9ff" opacity="0.12"/><path d="M 0,1080 C 0,1080 0,432 0,432 C 68.62385412514945,449.3308546375904 137.2477082502989,466.6617092751808 200,474 C 262.7522917497011,481.3382907248192 319.6330211239538,478.6840175368672 368,466 C 416.3669788760462,453.3159824631328 456.220207253886,430.6022205773501 510,441 C 563.779792746114,451.3977794226499 631.4861498605022,494.90710015373236 687,475 C 742.5138501394978,455.09289984626764 785.8351933041054,371.7693788077208 847,362 C 908.1648066958946,352.2306211922792 987.1730769230767,416.0153846153846 1055,415 C 1122.8269230769233,413.9846153846154 1179.4724990035872,348.1690827307408 1229,354 C 1278.5275009964128,359.8309172692592 1320.9369270625746,437.3082844616524 1386,476 C 1451.0630729374254,514.6917155383476 1538.7797927461143,514.5977794226499 1594,502 C 1649.2202072538857,489.40222057735014 1671.9439019529693,464.300597847748 1736,467 C 1800.0560980470307,469.699402152252 1905.4445994420087,500.19982918635776 1943,499 C 1980.5554005579913,497.80017081364224 1950.2777002789958,464.9000854068211 1920,432 C 1920,432 1920,1080 1920,1080 Z" fill="#42d9ff" opacity="0.24"/><path d="M 0,1080 C 0,1080 0,648 0,648 C 51.987852303137274,658.6235798743571 103.97570460627455,669.2471597487141 167,665 C 230.02429539372545,660.7528402512859 304.0850338780391,641.6349408795005 359,640 C 413.9149661219609,638.3650591204995 449.68415988156914,654.213076733284 507,645 C 564.3158401184309,635.786923266716 643.1783265956842,601.5127521873636 705,595 C 766.8216734043158,588.4872478126364 811.6025337356944,609.7359145172617 872,648 C 932.3974662643056,686.2640854827383 1008.4115384615386,741.5435897435897 1065,720 C 1121.5884615384614,698.4564102564103 1158.7513124181517,600.0897265083793 1220,580 C 1281.2486875818483,559.9102734916207 1366.5832118658543,618.0975042228928 1429,632 C 1491.4167881341457,645.9024957771072 1530.9158401184309,615.5202566000493 1578,618 C 1625.0841598815691,620.4797433999507 1679.7534276604226,655.8214693769098 1744,674 C 1808.2465723395774,692.1785306230902 1882.0704492398793,693.1938658923116 1913,686 C 1943.9295507601207,678.8061341076884 1931.9647753800605,663.4030670538442 1920,648 C 1920,648 1920,1080 1920,1080 Z" fill="#42d9ff" opacity="0.36"/><path d="M 0,1080 C 0,1080 0,864 0,864 C 68.86002581183928,883.674409269487 137.72005162367856,903.348818538974 201,910 C 264.27994837632144,916.651181461026 321.97981931712496,910.2791351135911 376,880 C 430.02018068287504,849.7208648864089 480.36067110782153,795.5346410066618 535,789 C 589.6393288921785,782.4653589933382 648.5774962515894,823.582300859762 705,862 C 761.4225037484106,900.417699140238 815.3293438858205,936.1361555542902 869,907 C 922.6706561141795,877.8638444457098 976.1051282051283,783.873076923077 1030,788 C 1083.8948717948717,792.126923076923 1138.2501432936665,894.3715367534022 1208,939 C 1277.7498567063335,983.6284632465978 1362.8942986202053,970.6407760633149 1427,929 C 1491.1057013797947,887.3592239366851 1534.1726622255119,817.0653589933384 1586,801 C 1637.8273377744881,784.9346410066616 1698.4150524777472,823.0977879633319 1768,831 C 1837.5849475222528,838.9022120366681 1916.1671278635008,816.5434891533337 1943,817 C 1969.8328721364992,817.4565108466663 1944.9164360682496,840.7282554233332 1920,864 C 1920,864 1920,1080 1920,1080 Z" fill="#42d9ff" opacity="0.48"/></svg>