<svg xmlns="http://www.w3.org/2000/svg" version="1.1" xmlns:xlink="http://www.w3.org/1999/xlink" xmlns:svgjs="http://svgjs.dev/svgjs" viewBox="0 0 800 800" width="800" height="800"><g stroke-width="3.5" stroke="hsla(0, 0%, 100%, 0.40)" fill="none"><line x1="0" y1="0" x2="160" y2="160"></line><line x1="160" y1="0" x2="0" y2="160"></line><line x1="160" y1="0" x2="320" y2="160"></line><line x1="320" y1="0" x2="160" y2="160"></line><line x1="320" y1="0" x2="480" y2="160"></line><line x1="480" y1="0" x2="320" y2="160"></line><line x1="480" y1="0" x2="640" y2="160"></line><line x1="640" y1="0" x2="480" y2="160"></line><line x1="640" y1="0" x2="800" y2="160"></line><line x1="800" y1="0" x2="640" y2="160"></line><line x1="800" y1="0" x2="960" y2="160"></line><line x1="960" y1="0" x2="800" y2="160"></line><line x1="0" y1="133.33333333333334" x2="160" y2="293.33333333333337"></line><line x1="160" y1="133.33333333333334" x2="0" y2="293.33333333333337"></line><line x1="160" y1="133.33333333333334" x2="320" y2="293.33333333333337"></line><line x1="320" y1="133.33333333333334" x2="160" y2="293.33333333333337"></line><line x1="320" y1="133.33333333333334" x2="480" y2="293.33333333333337"></line><line x1="480" y1="133.33333333333334" x2="320" y2="293.33333333333337"></line><line x1="480" y1="133.33333333333334" x2="640" y2="293.33333333333337"></line><line x1="640" y1="133.33333333333334" x2="480" y2="293.33333333333337"></line><line x1="640" y1="133.33333333333334" x2="800" y2="293.33333333333337"></line><line x1="800" y1="133.33333333333334" x2="640" y2="293.33333333333337"></line><line x1="800" y1="133.33333333333334" x2="960" y2="293.33333333333337"></line><line x1="960" y1="133.33333333333334" x2="800" y2="293.33333333333337"></line><line x1="0" y1="266.6666666666667" x2="160" y2="426.6666666666667"></line><line x1="160" y1="266.6666666666667" x2="0" y2="426.6666666666667"></line><line x1="160" y1="266.6666666666667" x2="320" y2="426.6666666666667"></line><line x1="320" y1="266.6666666666667" x2="160" y2="426.6666666666667"></line><line x1="320" y1="266.6666666666667" x2="480" y2="426.6666666666667"></line><line x1="480" y1="266.6666666666667" x2="320" y2="426.6666666666667"></line><line x1="480" y1="266.6666666666667" x2="640" y2="426.6666666666667"></line><line x1="640" y1="266.6666666666667" x2="480" y2="426.6666666666667"></line><line x1="640" y1="266.6666666666667" x2="800" y2="426.6666666666667"></line><line x1="800" y1="266.6666666666667" x2="640" y2="426.6666666666667"></line><line x1="800" y1="266.6666666666667" x2="960" y2="426.6666666666667"></line><line x1="960" y1="266.6666666666667" x2="800" y2="426.6666666666667"></line><line x1="0" y1="400" x2="160" y2="560"></line><line x1="160" y1="400" x2="0" y2="560"></line><line x1="160" y1="400" x2="320" y2="560"></line><line x1="320" y1="400" x2="160" y2="560"></line><line x1="320" y1="400" x2="480" y2="560"></line><line x1="480" y1="400" x2="320" y2="560"></line><line x1="480" y1="400" x2="640" y2="560"></line><line x1="640" y1="400" x2="480" y2="560"></line><line x1="640" y1="400" x2="800" y2="560"></line><line x1="800" y1="400" x2="640" y2="560"></line><line x1="800" y1="400" x2="960" y2="560"></line><line x1="960" y1="400" x2="800" y2="560"></line><line x1="0" y1="533.3333333333334" x2="160" y2="693.3333333333334"></line><line x1="160" y1="533.3333333333334" x2="0" y2="693.3333333333334"></line><line x1="160" y1="533.3333333333334" x2="320" y2="693.3333333333334"></line><line x1="320" y1="533.3333333333334" x2="160" y2="693.3333333333334"></line><line x1="320" y1="533.3333333333334" x2="480" y2="693.3333333333334"></line><line x1="480" y1="533.3333333333334" x2="320" y2="693.3333333333334"></line><line x1="480" y1="533.3333333333334" x2="640" y2="693.3333333333334"></line><line x1="640" y1="533.3333333333334" x2="480" y2="693.3333333333334"></line><line x1="640" y1="533.3333333333334" x2="800" y2="693.3333333333334"></line><line x1="800" y1="533.3333333333334" x2="640" y2="693.3333333333334"></line><line x1="800" y1="533.3333333333334" x2="960" y2="693.3333333333334"></line><line x1="960" y1="533.3333333333334" x2="800" y2="693.3333333333334"></line><line x1="0" y1="666.6666666666667" x2="160" y2="826.6666666666667"></line><line x1="160" y1="666.6666666666667" x2="0" y2="826.6666666666667"></line><line x1="160" y1="666.6666666666667" x2="320" y2="826.6666666666667"></line><line x1="320" y1="666.6666666666667" x2="160" y2="826.6666666666667"></line><line x1="320" y1="666.6666666666667" x2="480" y2="826.6666666666667"></line><line x1="480" y1="666.6666666666667" x2="320" y2="826.6666666666667"></line><line x1="480" y1="666.6666666666667" x2="640" y2="826.6666666666667"></line><line x1="640" y1="666.6666666666667" x2="480" y2="826.6666666666667"></line><line x1="640" y1="666.6666666666667" x2="800" y2="826.6666666666667"></line><line x1="800" y1="666.6666666666667" x2="640" y2="826.6666666666667"></line><line x1="800" y1="666.6666666666667" x2="960" y2="826.6666666666667"></line><line x1="960" y1="666.6666666666667" x2="800" y2="826.6666666666667"></line><line x1="0" y1="800.0000000000001" x2="160" y2="960.0000000000001"></line><line x1="160" y1="800.0000000000001" x2="0" y2="960.0000000000001"></line><line x1="160" y1="800.0000000000001" x2="320" y2="960.0000000000001"></line><line x1="320" y1="800.0000000000001" x2="160" y2="960.0000000000001"></line><line x1="320" y1="800.0000000000001" x2="480" y2="960.0000000000001"></line><line x1="480" y1="800.0000000000001" x2="320" y2="960.0000000000001"></line><line x1="480" y1="800.0000000000001" x2="640" y2="960.0000000000001"></line><line x1="640" y1="800.0000000000001" x2="480" y2="960.0000000000001"></line><line x1="640" y1="800.0000000000001" x2="800" y2="960.0000000000001"></line><line x1="800" y1="800.0000000000001" x2="640" y2="960.0000000000001"></line><line x1="800" y1="800.0000000000001" x2="960" y2="960.0000000000001"></line><line x1="960" y1="800.0000000000001" x2="800" y2="960.0000000000001"></line></g></svg>