<svg id="Layer_1" data-name="Layer 1" xmlns="http://www.w3.org/2000/svg" viewBox="0 0 457.23 489.26"><defs><style>.cls-1{fill:#1172ba;}</style></defs><path class="cls-1" d="M468.33,291.31H286.1c-9.23.92-21.76,9.66-29.37,15.64a10.29,10.29,0,0,1-13.08-.3c-7.3-6.28-19.58-15.34-29.75-15.34H31.67A10.28,10.28,0,0,1,21.39,281V15.65A10.28,10.28,0,0,1,31.67,5.37H213.9c10,0,22.07,8.77,29.41,15a10.28,10.28,0,0,0,13.38,0c7.34-6.27,19.4-15,29.41-15H468.33a10.28,10.28,0,0,1,10.28,10.28V281A10.28,10.28,0,0,1,468.33,291.31Z" transform="translate(-21.39 -5.37)"/><path class="cls-1" d="M432.27,370.34a5.25,5.25,0,0,1-.4,2.06c-4.94,11.34-56.46,122.23-183.4,122.23C122,494.63,70.06,383.76,65.07,372.4a5.27,5.27,0,0,1-.4-2.07v-.07c0-2.52,1.51-4.2,2.85-3.16,14.79,11.53,85.71,62.62,180.7,62.62,97.77,0,166.61-50.82,181.17-62.53,1.34-1.07,2.88.61,2.88,3.15Z" transform="translate(-21.39 -5.37)"/><path class="cls-1" d="M83.07,342.74a1.62,1.62,0,0,0-.42-.35c-2.57-1.44-28-14.83-40.47,9.21s2.89,56.94,4.49,60.26a2.73,2.73,0,0,0,.35.51h0c.46.53.92.59.86.12-.67-5.21-3.11-29.31,6.21-47.3,9.59-18.52,25.68-20.95,29.27-21.26.33,0,.17-.67-.3-1.2Z" transform="translate(-21.39 -5.37)"/></svg>