<svg id="Layer_1" data-name="Layer 1" xmlns="http://www.w3.org/2000/svg" viewBox="0 0 1532.15 462.14"><defs><style>.cls-1{fill:#1d79b5;}.cls-2{fill:#4d4d4d;}</style></defs><path class="cls-1" d="M443.42,293.16H271.28c-8.71.87-20.55,9.13-27.74,14.77a9.7,9.7,0,0,1-12.35-.28c-6.89-5.94-18.49-14.49-28.1-14.49H31a9.71,9.71,0,0,1-9.71-9.71V32.78A9.71,9.71,0,0,1,31,23.07H203.09c9.46,0,20.85,8.29,27.78,14.21a9.7,9.7,0,0,0,12.64,0c6.93-5.92,18.32-14.21,27.77-14.21H443.42a9.71,9.71,0,0,1,9.71,9.71V283.45A9.71,9.71,0,0,1,443.42,293.16Z" transform="translate(-21.25 -23.07)"/><path class="cls-1" d="M409.35,367.8a5,5,0,0,1-.37,1.95c-4.66,10.71-53.33,115.46-173.24,115.46-119.46,0-168.52-104.73-173.23-115.46a4.88,4.88,0,0,1-.38-1.95v-.07c0-2.38,1.43-4,2.7-3,14,10.89,81,59.15,170.68,59.15,92.34,0,157.37-48,171.13-59.06,1.26-1,2.71.57,2.71,3Z" transform="translate(-21.25 -23.07)"/><path class="cls-1" d="M79.51,341.74a1.48,1.48,0,0,0-.39-.34c-2.43-1.35-26.47-14-38.23,8.71s2.73,53.78,4.25,56.92a2,2,0,0,0,.32.48h0c.44.5.87.56.81.11-.63-4.92-2.93-27.68,5.87-44.68,9.05-17.49,24.26-19.78,27.64-20.08.31,0,.16-.63-.28-1.13Z" transform="translate(-21.25 -23.07)"/><path class="cls-2" d="M560.94,87.39H617.2a5,5,0,0,1,5,5V309.84a5,5,0,0,0,5,5h98.38a5,5,0,0,1,5,5.65L725,363a5,5,0,0,1-5,4.35H560.94a5,5,0,0,1-5-5v-270A5,5,0,0,1,560.94,87.39Z" transform="translate(-21.25 -23.07)"/><path class="cls-2" d="M850.05,146q30.69,0,52.92,12.92t34.14,37.58Q949,221.12,949,255.85q0,5.27-.2,11.72c-.08,2.42-.22,4.68-.43,6.76a5,5,0,0,1-5,4.55H808.84L808,240.5h76.76a1.62,1.62,0,0,0,1.62-1.61h0v-1.22A87,87,0,0,0,883,212q-3.44-11.1-10.9-17.37t-20.41-6.26q-12.12,0-20.6,6.86t-12.73,22.63q-4.23,15.75-4.24,42.82,0,26.67,6.26,41.21t17.38,20.2q11.1,5.67,26,5.66a70.48,70.48,0,0,0,25.46-4.65,113.86,113.86,0,0,0,21.91-11.64,5,5,0,0,1,6.81,1.18l20.48,27.73a5,5,0,0,1-1,7,151.51,151.51,0,0,1-32.83,18.38q-20.61,8.49-46.87,8.49-35.55,0-59.79-14.35a88.86,88.86,0,0,1-36.16-40q-11.91-25.65-11.91-58.78,0-31.92,11.51-58.18t33.94-41.61Q817.72,146,850.05,146Z" transform="translate(-21.25 -23.07)"/><path class="cls-2" d="M1071,234.85h30.7V270h-24.64q-21.81,0-32.52,7.68t-10.71,23.84q0,12.53,6.67,19.79t18.38,7.27q12.93,0,22.22-7.07a47,47,0,0,0,14.54-19.19l12.93,33.54q-10.9,21-29.29,29.69a90.16,90.16,0,0,1-39,8.69q-31.92,0-50.91-18.79t-19-48.28q0-35.15,26.06-53.73T1071,234.85ZM1066.59,146q46.86,0,67.87,19.19t21,56.76v83.22q0,12.12,3.43,17.78a19.48,19.48,0,0,0,8.67,7.46,3,3,0,0,1,1.61,3.61l-11.77,36.74a3,3,0,0,1-3.13,2.07q-19-1.87-31.34-9.48-13.12-8.08-20.4-27.07L1092.85,314V225.55q0-19-8.49-26.05t-27.87-7.07a139.31,139.31,0,0,0-25,2.82,213.84,213.84,0,0,0-28.28,7.52,3,3,0,0,1-3.81-1.86l-12.6-36.41a3,3,0,0,1,1.79-3.81A246.24,246.24,0,0,1,1027.2,150,211.67,211.67,0,0,1,1066.59,146Z" transform="translate(-21.25 -23.07)"/><path class="cls-2" d="M1211.37,152.83h46.36a5,5,0,0,1,5,4.36l5.49,42.1,2,55V362.36a5,5,0,0,1-5,5h-53.83a5,5,0,0,1-5-5V157.83A5,5,0,0,1,1211.37,152.83Zm111.35-6.06a94.53,94.53,0,0,1,11.11.61,58.23,58.23,0,0,1,8.6,1.73,2,2,0,0,1,1.41,2.24l-9.47,58A2,2,0,0,1,1332,211c-2.72-.61-5.26-1.12-7.63-1.56a55.14,55.14,0,0,0-9.69-.8q-14.15,0-23,7.27t-14.14,20.8a190,190,0,0,0-8.89,32.53l-2.83-68.68q6.46-25,21.82-39.39T1322.72,146.77Z" transform="translate(-21.25 -23.07)"/><path class="cls-2" d="M1373.36,152.83h46.58a5,5,0,0,1,4.92,4.11l7.34,40.33V362.36a5,5,0,0,1-5,5h-53.84a5,5,0,0,1-5-5V157.83A5,5,0,0,1,1373.36,152.83ZM1494,146q27.87,0,43.63,17t15.76,47.68V362.36a5,5,0,0,1-5,5h-53.84a5,5,0,0,1-5-5V221.51q0-17-5.45-22.82t-14.75-5.86q-10.5,0-19.79,7.27t-17.37,20.61l-8.49-36q14.55-19,31.51-28.89T1494,146Z" transform="translate(-21.25 -23.07)"/></svg>