<svg id="Layer_1" data-name="Layer 1" xmlns="http://www.w3.org/2000/svg" viewBox="0 0 1336.3 238"><defs><style>.cls-1{fill:#0071bc;}</style></defs><path class="cls-1" d="M238.12,155.1H149.47c-4.49.44-10.59,4.7-14.29,7.6a5,5,0,0,1-6.36-.14c-3.55-3.06-9.52-7.46-14.47-7.46H25.7a5,5,0,0,1-5-5V21a5,5,0,0,1,5-5h88.65c4.87,0,10.73,4.27,14.3,7.32a5,5,0,0,0,6.51,0c3.57-3.05,9.44-7.32,14.31-7.32h88.65a5,5,0,0,1,5,5V150.1A5,5,0,0,1,238.12,155.1Z" transform="translate(-20.7 -16)"/><path class="cls-1" d="M220.57,193.54a2.66,2.66,0,0,1-.19,1C218,200.06,192.91,254,131.16,254,69.64,254,44.38,200.07,42,194.54a2.49,2.49,0,0,1-.2-1v0c0-1.23.74-2,1.39-1.54,7.2,5.61,41.69,30.46,87.9,30.46,47.56,0,81.05-24.72,88.13-30.41.66-.53,1.4.29,1.4,1.53Z" transform="translate(-20.7 -16)"/><path class="cls-1" d="M50.71,180.11a1,1,0,0,0-.21-.17c-1.25-.7-13.63-7.21-19.68,4.48s1.4,27.7,2.18,29.32a1,1,0,0,0,.17.24h0c.23.26.45.29.42.06-.32-2.54-1.51-14.26,3-23,4.67-9,12.5-10.19,14.24-10.34.16,0,.08-.33-.14-.59Z" transform="translate(-20.7 -16)"/><path class="cls-1" d="M306.93,185V59.92a5,5,0,0,1,5-5h13.83a5,5,0,0,1,5,5v44.49a5,5,0,0,0,8.73,3.33L385,56.6a5,5,0,0,1,3.73-1.68h15.76a5,5,0,0,1,3.73,8.33l-38.86,43.64a5,5,0,0,0-.52,6l43,69.56a5,5,0,0,1-4.25,7.62H391.14a5,5,0,0,1-4.29-2.42l-32.91-54.68a5,5,0,0,0-7.72-1.06L332.32,145a5,5,0,0,0-1.56,3.63V185a5,5,0,0,1-5,5H311.93A5,5,0,0,1,306.93,185Z" transform="translate(-20.7 -16)"/><path class="cls-1" d="M467.86,192.4q-15.76,0-26.39-5.81a36.28,36.28,0,0,1-16-17.83q-5.32-12-5.32-30.53,0-18.7,5.32-30.62a36.4,36.4,0,0,1,16-17.73q10.62-5.8,26.39-5.81,15.94,0,26.49,5.81a36.55,36.55,0,0,1,15.85,17.73q5.31,11.91,5.32,30.62,0,18.53-5.32,30.53a36.43,36.43,0,0,1-15.85,17.83Q483.8,192.4,467.86,192.4Zm0-19.7q13.2,0,18.88-8.17t5.68-24.92v-2.75q0-16.55-5.68-24.82t-18.88-8.27q-13.2,0-18.88,8.27t-5.68,24.82v2.75q0,16.75,5.68,24.92T467.86,172.7Z" transform="translate(-20.7 -16)"/><path class="cls-1" d="M534.58,219.11V91.44a5,5,0,0,1,5-5h9.13a5,5,0,0,1,5,4.34l1.25,9.44h1.29a31.15,31.15,0,0,1,12.46-12.11,36.14,36.14,0,0,1,17.05-4q17.78,0,28,13T624,138.43Q624,157,619.26,169t-13.11,17.73A33.12,33.12,0,0,1,587,192.4a39.06,39.06,0,0,1-17.23-3.55A27.42,27.42,0,0,1,558,178h-1.1v41.09a5,5,0,0,1-5,5H539.58A5,5,0,0,1,534.58,219.11Zm44.17-47.39q12.29,0,17.23-7.88t4.95-24v-2.76a66.28,66.28,0,0,0-2.11-18.22q-2.12-7.18-7-10.63t-13.11-3.45q-11.37,0-16.59,8.27t-5.22,24v2.37a66.16,66.16,0,0,0,1.28,13.68,30.53,30.53,0,0,0,3.94,10.15,17.78,17.78,0,0,0,6.78,6.3A20.77,20.77,0,0,0,578.75,171.72Z" transform="translate(-20.7 -16)"/><path class="cls-1" d="M667.83,192.4a46.51,46.51,0,0,1-9.26-1.09,31.66,31.66,0,0,1-10.08-4,22.21,22.21,0,0,1-8-8.77q-3.12-5.81-3.12-15.26,0-10.63,4.4-17.63a30.54,30.54,0,0,1,12.37-11,63.06,63.06,0,0,1,19.07-5.71,160.3,160.3,0,0,1,22.28-1.67,2,2,0,0,0,2-2v-6.47a19.83,19.83,0,0,0-3-11.23q-3-4.53-13.11-4.53-6.78,0-10.63,1.77a11.28,11.28,0,0,0-5.31,4.33A10.58,10.58,0,0,0,664,114.4h0a2.75,2.75,0,0,1-2.76,2.76H644.14a2,2,0,0,1-2-2h0v-2.36q0-13.39,10.81-21.08t28.23-7.68q13.2,0,21.72,3.94a27.57,27.57,0,0,1,12.74,11.23q4.22,7.29,4.21,17.72v48.85c0,2.49.67,4.27,2,5.32a7,7,0,0,0,4.4,1.57h3.85a2,2,0,0,1,2,2v13.17a2,2,0,0,1-1.32,1.89c-1.07.4-2.41.85-4,1.35a29.5,29.5,0,0,1-8.62,1.08,20.83,20.83,0,0,1-8.52-1.67,17,17,0,0,1-6.32-4.83,19.2,19.2,0,0,1-3.67-7.48h-1.1a36.86,36.86,0,0,1-12.09,10.24Q679.2,192.39,667.83,192.4Zm6.78-19.7a25.65,25.65,0,0,0,9.81-1.77,19.43,19.43,0,0,0,7.15-4.92,22,22,0,0,0,4.39-7.69,30,30,0,0,0,1.56-9.84v-2.71a2,2,0,0,0-2-2,114.38,114.38,0,0,0-16.58,1.37q-8.52,1.38-13.57,5.12t-5,10.63a11,11,0,0,0,3.58,8.67Q667.46,172.7,674.61,172.7Z" transform="translate(-20.7 -16)"/><path class="cls-1" d="M745,185V52.63a5,5,0,0,1,5-5h12.36a5,5,0,0,1,5,5V185a5,5,0,0,1-5,5H750A5,5,0,0,1,745,185Z" transform="translate(-20.7 -16)"/><path class="cls-1" d="M815.93,192.4a46.51,46.51,0,0,1-9.26-1.09,31.66,31.66,0,0,1-10.08-4,22.14,22.14,0,0,1-8-8.77q-3.12-5.81-3.12-15.26,0-10.63,4.4-17.63a30.54,30.54,0,0,1,12.37-11,63.06,63.06,0,0,1,19.07-5.71,160.3,160.3,0,0,1,22.28-1.67,2,2,0,0,0,2-2v-6.47a19.83,19.83,0,0,0-3-11.23q-3-4.53-13.11-4.53-6.78,0-10.63,1.77a11.28,11.28,0,0,0-5.31,4.33,10.58,10.58,0,0,0-1.47,5.32v.75a2,2,0,0,1-2,2H792.28a2,2,0,0,1-2-2v-2.38q0-13.39,10.81-21.08t28.23-7.68q13.2,0,21.72,3.94a27.57,27.57,0,0,1,12.74,11.23Q868,106.53,868,117v48.85c0,2.49.67,4.27,2,5.32a7,7,0,0,0,4.4,1.57h3.85a2,2,0,0,1,2,2v13.17a2,2,0,0,1-1.31,1.89c-1.07.4-2.41.85-4,1.35a29.5,29.5,0,0,1-8.62,1.08,20.83,20.83,0,0,1-8.52-1.67,17,17,0,0,1-6.32-4.83,19.07,19.07,0,0,1-3.67-7.48h-1.1a36.86,36.86,0,0,1-12.09,10.24Q827.3,192.39,815.93,192.4Zm6.78-19.7a25.65,25.65,0,0,0,9.81-1.77,19.43,19.43,0,0,0,7.15-4.92,22,22,0,0,0,4.39-7.69,30,30,0,0,0,1.56-9.84v-2.7a2,2,0,0,0-2-2A114.24,114.24,0,0,0,827,145.13q-8.52,1.38-13.57,5.12t-5,10.63a11,11,0,0,0,3.58,8.67Q815.56,172.7,822.71,172.7Z" transform="translate(-20.7 -16)"/><path class="cls-1" d="M962.56,185V82a5,5,0,0,0-5-5H927.42a5,5,0,0,1-5-5V59.92a5,5,0,0,1,5-5h94.29a5,5,0,0,1,5,5V72a5,5,0,0,1-5,5H991.39a5,5,0,0,0-5,5V185a5,5,0,0,1-5,5H967.56A5,5,0,0,1,962.56,185Z" transform="translate(-20.7 -16)"/><path class="cls-1" d="M1061,192.4q-13.93,0-22.64-8.18t-8.7-27.87V92.44a6,6,0,0,1,6-6H1046a6,6,0,0,1,6,6V152q0,7.29,2.11,11.52a12.27,12.27,0,0,0,6.05,6,22.87,22.87,0,0,0,9.43,1.77,19.61,19.61,0,0,0,10.91-3.15,22.08,22.08,0,0,0,7.7-8.76,27.8,27.8,0,0,0,2.84-12.71V92.44a6,6,0,0,1,6-6h10.36a6,6,0,0,1,6,6V184a6,6,0,0,1-6,6h-7.26a6,6,0,0,1-5.94-5.21l-1.14-8.57h-1.29a39.93,39.93,0,0,1-12.64,11.62A35.15,35.15,0,0,1,1061,192.4Z" transform="translate(-20.7 -16)"/><path class="cls-1" d="M1162.71,192.4q-9,0-14.11-3.84a20.5,20.5,0,0,1-7.24-9.85,37,37,0,0,1-2.11-12.31V111.13a5,5,0,0,0-5-5h-1.54a5,5,0,0,1-5-5V91.44a5,5,0,0,1,5-5h2.74a5,5,0,0,0,5-4.32l2.84-20.33a5,5,0,0,1,5-4.31h13.43v24a5,5,0,0,0,5,5h11.67v14.69a5,5,0,0,1-5,5h-6.67a5,5,0,0,0-5,5V164a9.34,9.34,0,0,0,2,6.4q2,2.26,6,2.26h3.61a5,5,0,0,1,5,5v8a5,5,0,0,1-3.56,4.79c-1.11.32-2.33.63-3.68.92A38.84,38.84,0,0,1,1162.71,192.4Z" transform="translate(-20.7 -16)"/><path class="cls-1" d="M1237.68,192.4q-15.77,0-26.39-5.81a36.28,36.28,0,0,1-16-17.83q-5.33-12-5.32-30.53,0-18.7,5.32-30.62a36.4,36.4,0,0,1,16-17.73q10.62-5.8,26.39-5.81,15.94,0,26.49,5.81A36.55,36.55,0,0,1,1280,107.61q5.31,11.91,5.32,30.62,0,18.53-5.32,30.53a36.43,36.43,0,0,1-15.85,17.83Q1253.63,192.4,1237.68,192.4Zm0-19.7q13.2,0,18.88-8.17t5.68-24.92v-2.75q0-16.55-5.68-24.82t-18.88-8.27q-13.2,0-18.88,8.27t-5.68,24.82v2.75q0,16.75,5.68,24.92T1237.68,172.7Z" transform="translate(-20.7 -16)"/><path class="cls-1" d="M1304.4,185.14V91.33a4.88,4.88,0,0,1,4.89-4.89h9.43a4.89,4.89,0,0,1,4.86,4.34l1.35,12h0a1.88,1.88,0,0,0,1.74-1.2,49.49,49.49,0,0,1,4-8,21.63,21.63,0,0,1,6.87-6.89,18.88,18.88,0,0,1,10.27-2.66,23.6,23.6,0,0,1,5.41.59h0a4.84,4.84,0,0,1,3.71,4.7V103.6a4.89,4.89,0,0,1-4.89,4.89h-1.89a25.19,25.19,0,0,0-12.92,3.06,19,19,0,0,0-7.88,9.25q-2.67,6.21-2.66,15.86v48.48a4.89,4.89,0,0,1-4.89,4.89h-12.58A4.89,4.89,0,0,1,1304.4,185.14Z" transform="translate(-20.7 -16)"/></svg>